# xmcd CD database file
#
# Track frame offsets:
#	150
#	3992
#	22879
#	41388
#	66323
#	68310
#	89812
#	104584
#	127828
#	130790
#	151220
#	169734
#	185106
#	206201
#	224393
#	247830
#	273857
#
# Disc length: 4295 seconds
#
# Revision: 1
# Processed by: cddbd v1.5.1PL0 Copyright (c) Steve Scherf et al.
# Submitted via: CDex 1.51
#
DISCID=e710c511
DTITLE=Artist CD Text in Japanese only - Title CD Text in Japanese only
DYEAR=1900
DGENRE=JPop
TTITLE0=Artist CD Text in Japanese only - Track 1 [CD Text in Japanese only)
TTITLE1=Artist CD Text in Japanese only - Track 2 [CD Text in Japanese only)
TTITLE2=Artist CD Text in Japanese only - Track 3 [CD Text in Japanese only)
TTITLE3=Artist CD Text in Japanese only - Track 4 [CD Text in Japanese only)
TTITLE4=Artist CD Text in Japanese only - Track 5 [CD Text in Japanese only)
TTITLE5=Artist CD Text in Japanese only - Track 6 [CD Text in Japanese only)
TTITLE6=Artist CD Text in Japanese only - Track 7 [CD Text in Japanese only)
TTITLE7=Artist CD Text in Japanese only - Track 8 [CD Text in Japanese only)
TTITLE8=Artist CD Text in Japanese only - Track 9 [CD Text in Japanese only)
TTITLE9=Artist CD Text in Japanese only - Track 10 [CD Text in Japanese only)
TTITLE10=Artist CD Text in Japanese only - Track 11 [CD Text in Japanese only)
TTITLE11=Artist CD Text in Japanese only - Track 12 [CD Text in Japanese only)
TTITLE12=Artist CD Text in Japanese only - Track 13 [CD Text in Japanese only)
TTITLE13=Artist CD Text in Japanese only - Track 14 [CD Text in Japanese only)
TTITLE14=Artist CD Text in Japanese only - Track 15 [CD Text in Japanese only)
TTITLE15=Artist CD Text in Japanese only - Track 16 [CD Text in Japanese only)
TTITLE16=Artist CD Text in Japanese only - Track 17 [CD Text in Japanese only)
EXTD=
EXTT0=
EXTT1=
EXTT2=
EXTT3=
EXTT4=
EXTT5=
EXTT6=
EXTT7=
EXTT8=
EXTT9=
EXTT10=
EXTT11=
EXTT12=
EXTT13=
EXTT14=
EXTT15=
EXTT16=
PLAYORDER=
